<?xml version="1.0" encoding="utf-8"?>
<!-- Generator: Adobe Illustrator 22.0.1, SVG Export Plug-In . SVG Version: 6.00 Build 0)  -->
<svg version="1.1" id="Layer_1" xmlns="http://www.w3.org/2000/svg" xmlns:xlink="http://www.w3.org/1999/xlink" x="0px" y="0px"
	 viewBox="0 0 38 39" style="enable-background:new 0 0 38 39;" xml:space="preserve">
<style type="text/css">
	.st0{filter:url(#Adobe_OpacityMaskFilter);}
	.st1{fill:#FFFFFF;}
	.st2{mask:url(#Mask_Mask_1_1_);}
	.st3{fill:#1D1D1C;}
</style>
<g>
	<g transform="matrix( 1.6390838623046875, 0, 0, 1.6390838623046875, 0,0) ">
		<defs>
			<filter id="Adobe_OpacityMaskFilter" filterUnits="userSpaceOnUse" x="0" y="0" width="23.2" height="20.1">
				<feColorMatrix  type="matrix" values="1 0 0 0 0  0 1 0 0 0  0 0 1 0 0  0 0 0 1 0"/>
			</filter>
		</defs>
		<mask maskUnits="userSpaceOnUse" x="0" y="0" width="23.2" height="20.1" id="Mask_Mask_1_1_">
			<g transform="matrix( 1, 0, 0, 1, 0,0) " class="st0">
				<g>
					<g id="Mask_FlashAICB_1_Layer_1__Clip_Group__0_2_MASK_0_FILL_1_">
						<path class="st1" d="M0,0v20h23.2V0H0z"/>
					</g>
				</g>
			</g>
		</mask>
		<g class="st2">
			<g transform="matrix( 1, 0, 0, 1, 0,0) ">
				<g>
					<g id="FlashAICB_1_Layer_1__Clip_Group__0_Layer2_0_FILL">
						<path class="st3" d="M21.8,1.9l1.4-0.6l-0.6,0C17.2,0.3,13.8-0.1,12.3,0h-0.1l-0.1,0.1c-0.7,1.1-2,2.7-4,4.8
							C7.2,6,6,7.3,4.7,8.6C3.8,6.7,3.2,4.7,2.9,2.8V2.5L0,4.6l0.4,0.1c1,0.1,1.9,0.2,2.6,0.2c0.4,1.6,0.9,3,1.5,4.1
							c0.6,1.3,1.7,2.3,3.4,2.9c0.8,0.3,1.6,0.6,2.4,0.7h0.1l0.1-0.1c1.4-3,3.2-5.5,5.5-7.3C17.3,4.1,19.3,3,21.8,1.9 M22,1.4
							l-0.3,0.1c-2.5,1.1-4.5,2.2-5.8,3.3c-2.3,1.8-4.2,4.3-5.6,7.3c-0.8-0.1-1.7-0.4-2.4-0.8c-1.4-0.6-2.4-1.4-3-2.6
							c3.9-3.9,6.4-6.7,7.6-8.5C14,0.3,17.2,0.7,22,1.4 M0.9,4.3l1.8-1.2l0.2,1.3L0.9,4.3z"/>
					</g>
				</g>
			</g>
			<g transform="matrix( 1, 0, 0, 1, 0,0) ">
				<g>
					<g id="FlashAICB_1_Layer_1__Clip_Group__0_Layer2_1_FILL">
						<path class="st3" d="M12.4,8.8L12.1,9c0.7,1.2,1.4,3.7,2.1,7.4c0,0.3-0.2,0.6-0.7,1c-0.4,0.3-1.1,0.8-2.2,1.4l-0.9,0.6
							c0.1-1.1,0.2-2.6,0.2-4.5c0-1.6-0.1-2.5-0.1-2.5h-0.4c0,0,0,0.9,0.1,2.7c0,2-0.1,3.5-0.2,4.6L9.9,20l0.3-0.1l1.2-0.8
							c1.3-0.8,2.1-1.3,2.4-1.6c0.5-0.4,0.8-0.8,0.8-1.1C13.9,12.6,13.2,10,12.4,8.8z"/>
					</g>
				</g>
			</g>
			<g transform="matrix( 1, 0, 0, 1, 0,0) ">
				<g>
					<g id="FlashAICB_1_Layer_1__Clip_Group__0_Layer2_2_FILL">
						<path class="st3" d="M13.2,7.5l0.4-0.1l-1-7.3l-0.4,0L13.2,7.5z"/>
					</g>
				</g>
			</g>
			<g transform="matrix( 1, 0, 0, 1, 0,0) ">
				<g>
					<g id="FlashAICB_1_Layer_1__Clip_Group__0_Layer2_3_FILL">
						<path class="st3" d="M8.3,5.1l0.1-0.3L2.8,2.7L2.7,3L8.3,5.1z"/>
					</g>
				</g>
			</g>
		</g>
		<g id="Layer_4">
		</g>
	</g>
</g>
</svg>
