<?xml version="1.0" encoding="utf-8"?>
<!-- Generator: Adobe Illustrator 22.0.1, SVG Export Plug-In . SVG Version: 6.00 Build 0)  -->
<svg version="1.1" id="Layer_1" xmlns="http://www.w3.org/2000/svg" xmlns:xlink="http://www.w3.org/1999/xlink" x="0px" y="0px"
	 viewBox="0 0 38 39" style="enable-background:new 0 0 38 39;" xml:space="preserve">
<style type="text/css">
	.st0{fill:none;stroke:#000000;stroke-width:0.5;stroke-linecap:round;stroke-linejoin:round;}
	.st1{fill:#FFFFFF;}
</style>
<g>
	<g transform="matrix( 1, 0, 0, 1, -335.35,-253.95) ">
		<g>
			<path id="Layer0_0_1_STROKES" class="st0" d="M349,262l-9.1-3.2c0.2,1.2,0.4,2.1,0.6,2.7c0.8,3.4,1.9,6,3.3,8
				c2,2.7,4.8,4.4,8.5,5.1c0.2,6.5,0.1,10.4-0.5,11.7l2.2-1.1c1.8-1,3.5-2.4,5-4c-0.1-1.3-0.3-2.8-0.7-4.6c-0.7-3.4-1.6-6.1-2.8-8
				 M340.5,261.5l-4.7-0.2l4.1-2.5"/>
		</g>
	</g>
	<g transform="matrix( 1, 0, 0, 1, -335.35,-253.95) ">
		<g>
			<path id="Layer0_1_1_STROKES" class="st0" d="M352.3,274.6c0.4-1.3,1-2.5,1.8-3.6c0.2-0.3,0.6-0.9,1.5-2"/>
		</g>
	</g>
	<g transform="matrix( 1, 0, 0, 1, -335.35,-253.95) ">
		<g>
			<g id="Layer0_2_MEMBER_0_FILL">
				<path class="st1" d="M337.5,274l0.1,7.8c0.4,5.6,1.5,9.6,3.1,11.9c1.1-3.1,2.6-6.5,4.5-10.4c1.6-3.1,3.1-5.9,4.5-8.1L337.5,274
					 M355.4,268.4c-0.3-0.6-0.8-1.3-1.5-2.1c-1.4-1.7-3-3.1-4.8-4.1c-4.7,5.5-8.5,9.4-11.6,11.9l12.2,1.1
					C351.7,272,353.6,269.8,355.4,268.4z"/>
			</g>
		</g>
		<g>
			<path id="Layer0_2_MEMBER_0_1_STROKES" class="st0" d="M349.7,275.1c2-3.1,3.9-5.3,5.7-6.7c-0.3-0.6-0.8-1.3-1.5-2.1
				c-1.4-1.7-3-3.1-4.8-4.1c-4.7,5.5-8.5,9.4-11.6,11.9L349.7,275.1c-1.4,2.3-2.9,5-4.5,8.1c-1.9,3.8-3.4,7.3-4.5,10.4
				c-1.7-2.3-2.7-6.2-3.1-11.9l-0.1-7.8"/>
		</g>
	</g>
</g>
</svg>
