<?xml version="1.0" encoding="utf-8"?>
<!-- Generator: Adobe Illustrator 22.0.1, SVG Export Plug-In . SVG Version: 6.00 Build 0)  -->
<svg version="1.1" id="Layer_1" xmlns="http://www.w3.org/2000/svg" xmlns:xlink="http://www.w3.org/1999/xlink" x="0px" y="0px"
	 viewBox="0 0 38 39" style="enable-background:new 0 0 38 39;" xml:space="preserve">
<style type="text/css">
	.st0{fill:none;stroke:#000000;stroke-width:0.5;stroke-linecap:round;stroke-linejoin:round;}
	.st1{fill:#FFFFFF;}
</style>
<g>
	<g transform="matrix( 1, 0, 0, 1, -335.35,-253.95) ">
		<g>
			<path id="Layer0_0_1_STROKES" class="st0" d="M349,262l-9.1-3.2c0.2,1.2,0.4,2.1,0.6,2.7c0.8,3.4,1.9,6,3.3,8
				c2,2.7,4.8,4.4,8.5,5.1c0.2,6.5,0.1,10.4-0.5,11.7l2.2-1.1c1.8-1,3.5-2.4,5-4c-0.1-1.3-0.3-2.8-0.7-4.6c-0.7-3.4-1.6-6.1-2.8-8
				 M340.5,261.5l-4.7-0.2l4.1-2.5"/>
		</g>
	</g>
	<g transform="matrix( 1, 0, 0, 1, -335.35,-253.95) ">
		<g>
			<path id="Layer0_1_1_STROKES" class="st0" d="M352.3,274.6c0.4-1.3,1-2.5,1.8-3.6c0.2-0.3,0.6-0.9,1.5-2"/>
		</g>
	</g>
	<g transform="matrix( 1, 0, 0, 1, -335.35,-253.95) ">
		<g>
			<path id="Layer0_2_1_STROKES" class="st0" d="M349.1,262c1.7,1.2,3.1,2.4,4.1,3.5c1,1,1.8,2.3,2.6,3.7"/>
		</g>
	</g>
	<g transform="matrix( 1, 0, 0, 1, -335.35,-253.95) ">
		<g>
			<path id="Layer0_3_1_STROKES" class="st0" d="M343.5,268.5c0.9-0.9,1.6-1.6,2-2.2"/>
		</g>
	</g>
	<g transform="matrix( 1, 0, 0, 1, -335.35,-253.95) ">
		<g>
			<g id="Layer0_4_FILL">
				<path d="M348.9,262c-0.1,0-0.1,0-0.1,0.1c-0.3,0.4-0.7,0.8-1.1,1.2h0c-0.7,0.6-1.5,0.9-2.3,0.9h-0.1c-0.1,0-0.1,0-0.2,0.1
					c0,0.1,0,0.1,0,0.2c0,2.3,1.3,4.7,4,7.2c1.4,1.4,3.1,2.7,4.9,3.9c0.1,0,0.1,0.1,0.2,0c0,0,0,0,0.1,0c0.1,0,0.1,0,0.2,0
					c0.1,0,0.1-0.1,0.1-0.1c0,0,0-0.1,0-0.1c-0.2-0.4-0.4-0.8-0.5-1.2c-0.3-0.7-0.4-1.3-0.4-1.9c0-1,0.1-1.7,0.4-2.1
					c0.3-0.3,0.7-0.6,1.4-0.8c0.1,0,0.1-0.1,0.1-0.1c0.1,0,0.1-0.1,0.1-0.2c0,0-0.1-0.1-0.2-0.1c0,0-0.1,0-0.2,0
					c-0.4,0.1-0.8,0.2-1.1,0.4l-7.9-4.6c0.6-0.1,1.2-0.4,1.9-0.9v-0.1c0.4-0.4,0.8-0.8,1.1-1.2c0-0.1,0.1-0.1,0-0.2
					c0-0.1,0-0.1-0.1-0.1C349,262,348.9,261.9,348.9,262 M353.6,269.5c-0.1,0.1-0.1,0.1-0.1,0.2c-0.3,0.5-0.5,1.3-0.5,2.4
					c0,0.6,0.2,1.2,0.4,2c0.1,0.2,0.2,0.5,0.3,0.7c-1.6-1.1-3.1-2.3-4.4-3.6c-2.4-2.3-3.7-4.5-3.8-6.5L353.6,269.5z"/>
				<path class="st1" d="M353.5,269.7c0-0.1,0.1-0.1,0.1-0.2l-8.1-4.7c0.2,2,1.5,4.2,3.8,6.5c1.3,1.3,2.8,2.5,4.4,3.6
					c-0.1-0.2-0.2-0.5-0.3-0.7c-0.3-0.8-0.4-1.5-0.4-2C353,271,353.1,270.2,353.5,269.7z"/>
			</g>
		</g>
	</g>
</g>
</svg>
